HIERARCHY
ROOT Hips
{
  OFFSET 0.0 0.0 0.0
  CHANNELS 6 Xposition Yposition Zposition Zrotation Xrotation Yrotation
  JOINT LeftHipJoint
  {
    OFFSET 0.1 0.0 0.0
    CHANNELS 3 Zrotation Xrotation Yrotation
    JOINT LeftUpLeg
    {
      OFFSET 125.510175570831 0.0 0.0
      CHANNELS 3 Zrotation Xrotation Yrotation
      JOINT LeftLeg
      {
        OFFSET 0.0 0.0 -461.7351325165072
        CHANNELS 3 Zrotation Xrotation Yrotation
        JOINT LeftFoot
        {
          OFFSET 0.0 0.0 -454.91453388191
          CHANNELS 3 Zrotation Xrotation Yrotation
          End Site
          {
            OFFSET 0.0 -0.1 0.0
          }
        }
      }
    }
  }
  JOINT LowerBack
  {
    OFFSET 0.0 0.0 0.1
    CHANNELS 3 Zrotation Xrotation Yrotation
    JOINT Spine
    {
      OFFSET 0.0 0.0 247.74924459293257
      CHANNELS 3 Zrotation Xrotation Yrotation
      JOINT Spine1
      {
        OFFSET 0.0 0.0 251.66952775308428
        CHANNELS 3 Zrotation Xrotation Yrotation
        JOINT LeftShoulder
        {
          OFFSET 0.1 0.0 0.0
          CHANNELS 3 Zrotation Xrotation Yrotation
          JOINT LeftArm
          {
            OFFSET 132.31096996277108 0.0 0.0
            CHANNELS 3 Zrotation Xrotation Yrotation
            JOINT LeftForeArm
            {
              OFFSET 281.21283231331097 0.0 0.0
              CHANNELS 3 Zrotation Xrotation Yrotation
              JOINT LeftHand
              {
                OFFSET 223.97023459828003 0.0 0.0
                CHANNELS 3 Zrotation Xrotation Yrotation
                End Site
                {
                  OFFSET 0.1 0.0 0.0
                }
              }
            }
          }
        }
        JOINT Neck
        {
          OFFSET 0.0 0.0 0.1
          CHANNELS 3 Zrotation Xrotation Yrotation
          JOINT Neck1
          {
            OFFSET 0.0 0.0 107.73906518664809
            CHANNELS 3 Zrotation Xrotation Yrotation
            End Site
            {
              OFFSET 0.0 0.0 123.13143833151273
            }
          }
        }
        JOINT RightShoulder
        {
          OFFSET -0.1 0.0 0.0
          CHANNELS 3 Zrotation Xrotation Yrotation
          JOINT RightArm
          {
            OFFSET -132.31096996277108 0.0 0.0
            CHANNELS 3 Zrotation Xrotation Yrotation
            JOINT RightForeArm
            {
              OFFSET -281.21283231331097 0.0 0.0
              CHANNELS 3 Zrotation Xrotation Yrotation
              JOINT RightHand
              {
                OFFSET -223.97023459828003 0.0 0.0
                CHANNELS 3 Zrotation Xrotation Yrotation
                End Site
                {
                  OFFSET -0.1 0.0 0.0
                }
              }
            }
          }
        }
      }
    }
  }
  JOINT RightHipJoint
  {
    OFFSET -0.1 0.0 0.0
    CHANNELS 3 Zrotation Xrotation Yrotation
    JOINT RightUpLeg
    {
      OFFSET -125.510175570831 0.0 0.0
      CHANNELS 3 Zrotation Xrotation Yrotation
      JOINT RightLeg
      {
        OFFSET 0.0 0.0 -461.7351325165072
        CHANNELS 3 Zrotation Xrotation Yrotation
        JOINT RightFoot
        {
          OFFSET 0.0 0.0 -454.91453388191
          CHANNELS 3 Zrotation Xrotation Yrotation
          End Site
          {
            OFFSET 0.0 -0.1 0.0
          }
        }
      }
    }
  }
}
MOTION
Frames: 10
Frame Time: 0.03333333333333333
2500.0 5850.0 935.6348341179406 28.86763848510062 -24.396861919904598 -0.9295204862585748 0.0 0.0 0.0 -1.3091199049026894 30.495289242993444 2.893352377680198 0.022619887093175327 4.222414118129478 -1.3328533086452692 0.0 0.0 0.0 0.0 0.0 0.0 -1.3141883656778321 30.506978678072173 2.369140156693466 -0.18014810779900273 -9.923595746199766e-16 -9.954846448502441e-16 0.0 0.0 0.0 -32.71366457849546 7.714764679446084 70.63878890817479 -26.77082597487012 1.1381764870670693e-14 2.564312316514794e-16 -1.5902773407317588e-15 -8.68987802428625e-32 6.2617170291313e-15 0.0 0.0 0.0 -1.9087639907839042 12.743139893107163 -0.6274015633402725 0.0 0.0 0.0 30.266861765914587 4.685783004020402 -71.71155035552727 25.91065114170971 4.773083296794026e-15 -7.625293469506719e-15 0.0 0.0 0.0 0.0 0.0 0.0 -1.3596119304053038 31.28169514666783 -3.999631604454994 -0.4293318431914148 3.7006718303118276 1.7211632332038982 0.0 0.0 0.0
2500.0 5850.0 935.6348341179406 29.19839136253709 -24.42041439680025 -0.7028553512856152 0.0 -3.1805546814635168e-15 0.0 -1.314624998787488 30.585286170025785 2.664010441154688 0.005191697065251804 4.079098004700476 -1.2393826333738767 0.0 0.0 0.0 0.0 -3.1805546814635168e-15 0.0 -1.3149509066185234 30.502840317851373 2.345199339477862 -0.2555959151793707 1.2925405130429331e-15 -1.9590215196998841e-16 0.0 0.0 -1.987846675914698e-16 -33.09949512323259 7.940700673759291 70.50454973839292 -27.213752439786866 2.2003643455048332e-15 -2.3307479926170455e-15 0.0 0.0 -2.9817700138720468e-15 0.0 0.0 -1.987846675914698e-16 -1.656869195641996 12.742676269178713 -1.0882676546949572 0.0 0.0 -1.987846675914698e-16 30.284717062507678 4.563457018421818 -71.70300018360004 26.287757913409845 -2.373981795113648e-15 3.820479891326215e-15 0.0 0.0 0.0 0.0 -3.1805546814635168e-15 0.0 -1.3531640100533482 31.13789687664864 -4.279202445582473 -0.4767636304684314 3.9415678782114756 1.8901333606114417 0.0 0.0 3.975693351829396e-16
2500.0 5850.0 935.6348341179406 29.227067872745884 -24.39588196369947 -0.6305445594317063 0.0 0.0 0.0 -1.167583166122759 30.58815290945693 2.596493527519763 0.021488726389670483 4.18159239061597 -1.326561849438582 1.0345092886055059e-32 -1.4908850069360234e-15 7.951386703658791e-16 0.0 0.0 0.0 -1.1558651740954773 30.234526381304676 2.3614738522145684 -0.21025600114127274 -2.5531507154398922e-18 1.3914903308411922e-15 0.0 0.0 1.987846675914698e-16 -33.77957623812587 8.107829799541804 70.53374537133561 -27.47829050788756 -4.45692877611386e-16 -1.1568811734245863e-14 0.0 0.0 -1.7890620083232284e-15 0.0 0.0 1.987846675914698e-16 -2.174090026674547 12.970872364569502 -1.374859031440136 0.0 0.0 1.987846675914698e-16 30.038967803423585 4.5893708266772375 -71.76865426707874 27.097776186269257 -1.6093785804370653e-14 -1.2479707922703841e-14 0.0 0.0 1.5902773407317584e-15 0.0 0.0 0.0 -1.193630365471327 30.94137007874404 -4.396696002747312 -0.4894637897599841 4.154016705489182 1.9352956616383985 0.0 0.0 -3.975693351829396e-16
2500.0 5850.0 935.6348341179406 29.492419404570896 -24.06279615232935 -0.4320450842197915 0.0 0.0 0.0 -1.04777747326642 30.418010751084346 2.3904973760711217 0.02223278852968303 4.065907711205439 -1.315854933598842 0.0 0.0 -3.975693351829396e-16 0.0 0.0 0.0 -1.0145837788075938 29.51017519657722 2.387464535776654 -0.4646200693082627 -9.858553167953255e-17 -1.9918602619229545e-16 0.0 0.0 0.0 -34.225821384927734 8.636597425381005 70.80052509526934 -27.374635943927824 -1.331588099079143e-14 1.435221763048329e-14 0.0 0.0 2.9817700138720468e-15 0.0 0.0 0.0 -2.1465082829381426 13.466578619503071 -1.953315109928025 0.0 0.0 0.0 30.155856823643585 4.973446678984501 -72.34029131232106 27.671333412394468 5.370046729753808e-15 8.504227121735129e-15 0.0 0.0 1.5902773407317584e-15 0.0 0.0 0.0 -1.0555423662467047 30.38131874530633 -4.6136737337349985 -0.533995342383207 4.542172829197391 1.9413663521193623 0.0 1.5902773407317582e-15 0.0
2500.0 5850.0 935.6348341179406 29.92089087623795 -24.143029473048376 -0.2945738783964861 2.2069531490250793e-32 3.1805546814635176e-15 -7.951386703658794e-16 -1.007256051973962 30.71522038444797 2.2395184479995547 0.01732331708676046 3.824334200794266 -1.2053431473613576 -3.1805546814635168e-15 1.1034765745125397e-32 -3.975693351829396e-16 2.2069531490250793e-32 3.1805546814635176e-15 -7.951386703658794e-16 -0.9645257286370353 29.521609182536285 2.463812118126014 -0.631181819643242 -5.024287322134169e-16 9.911709596314686e-16 0.0 0.0 1.987846675914698e-16 -35.178761313484486 9.146520161585682 70.67187073683046 -28.09528558847824 -2.507733490911175e-15 3.47079131997125e-15 -1.2414111463266072e-32 1.5902773407317584e-15 8.945310041616142e-16 0.0 0.0 1.987846675914698e-16 -2.3928436126413537 13.769173246298664 -2.3360805305838013 0.0 0.0 1.987846675914698e-16 30.54962442923343 4.992040679765775 -72.54626894558571 28.120700770693094 -7.78213547741387e-16 -1.619902817456586e-14 6.3611093629270335e-15 -8.827812596100317e-32 -1.5902773407317584e-15 2.2069531490250793e-32 3.1805546814635176e-15 -7.951386703658794e-16 -1.001348051748179 30.333071583892835 -4.641487109285991 -0.5626016705479953 4.839938373085962 1.711752350619673 0.0 0.0 0.0
2500.0 5850.0 935.6348341179406 30.219341918506203 -24.209516701453325 -0.28424706826784435 0.0 0.0 -7.951386703658792e-16 -0.9985415207513004 30.8224356417837 2.2474319964946368 0.01915275279858823 3.775076227190815 -1.097330198462729 0.0 0.0 -3.975693351829396e-16 0.0 0.0 -7.951386703658792e-16 -0.9495510572721394 29.454035490754066 2.7969548571537333 -0.7424303253281895 -5.911898771762137e-16 -7.989856887708641e-16 0.0 0.0 -1.987846675914698e-16 -35.475827859431476 9.568845399583967 70.59411191043398 -28.68410898842483 1.715133716119942e-14 -1.572233593758703e-14 0.0 0.0 -2.4848083448933726e-15 0.0 0.0 -1.987846675914698e-16 -2.8247818312681585 14.08206737233692 -2.7980031596371964 0.0 0.0 -1.987846675914698e-16 31.381493563349654 4.99556092986559 -72.7812961219513 28.74702786301789 9.242991060489176e-15 -2.3686428586286778e-15 0.0 0.0 0.0 0.0 0.0 -7.951386703658792e-16 -0.9877771816524274 30.31243311248529 -4.579668675735833 -0.5962518773155504 5.196863864354641 1.5681871454203284 0.0 0.0 0.0
2500.0 5850.0 935.6348341179406 30.147618617796446 -24.039891008585755 -0.35912487251688485 0.0 0.0 7.951386703658792e-16 -0.8835223217931129 30.62944990693822 2.324763752483194 0.03917357064208885 3.8509100159055762 -0.8611706219929094 0.0 0.0 0.0 0.0 0.0 7.951386703658792e-16 -0.8381574170784525 29.191052576062454 2.739745800359461 -0.6994509064534395 1.4896438876120297e-15 2.0788106233179747e-16 0.0 -9.93923337957349e-17 0.0 -36.772646292744476 9.806658965496426 70.69277579328006 -29.21054831934629 1.9398909073309233e-15 -1.1378872125762526e-15 0.0 0.0 3.0811623476677818e-15 0.0 -9.93923337957349e-17 0.0 -3.021332607288986 13.981154328562582 -3.0292047551275494 0.0 -9.93923337957349e-17 0.0 30.867561110169326 4.671964494904911 -72.91503599323529 29.393554223063493 2.00727961741809e-14 1.3114789441574636e-15 -6.3611093629270335e-15 0.0 0.0 0.0 0.0 7.951386703658792e-16 -0.8726024548390706 30.047486713975843 -4.449321842848148 -0.5957897941520933 5.483167301756109 1.565922489613322 0.0 0.0 0.0
2500.0 5850.0 935.6348341179406 30.35976326458839 -23.892314740577632 -0.42326971630938254 0.0 0.0 7.951386703658792e-16 -0.9669336339949588 30.33319835010061 2.4374388228256794 0.036417800035649574 4.0505078312417435 -0.6690467296475456 0.0 0.0 0.0 0.0 0.0 7.951386703658792e-16 -0.9348642574572198 29.378439895544158 3.2220495747583278 -0.7774589817913349 8.018636999540322e-16 -9.885057984369776e-16 -3.1805546814635164e-15 -1.1034765745125397e-32 3.9756933518293955e-16 -38.05860307956027 10.261479843184038 70.51694689821841 -29.14902875369446 4.2555822727111335e-15 8.911447058900823e-15 0.0 0.0 -1.7393658414253607e-15 -3.1805546814635164e-15 -1.1034765745125397e-32 3.9756933518293955e-16 -3.1285865432478603 13.546460700123284 -3.9437073798735724 -3.1805546814635164e-15 -1.1034765745125397e-32 3.9756933518293955e-16 30.973561863956686 4.095955739512514 -73.1461677479038 29.670987659322176 5.334697537668989e-15 -4.703258720343363e-15 0.0 0.0 0.0 0.0 0.0 7.951386703658792e-16 -0.9422412593004927 29.44801154199645 -4.302742129566887 -0.6690960204287808 6.126125135999435 1.6222888204177965 0.0 -1.2424041724466861e-17 0.0
2500.0 5850.0 935.6348341179406 30.863950318586056 -23.779513460255345 -0.3171457769338317 3.1805546814635176e-15 1.987846675914699e-16 1.5902773407317588e-15 -0.9141449623618186 30.035910804072536 2.3856231995770303 0.04378335445527623 4.544493831747302 -0.5557926389103659 0.0 0.0 0.0 3.1805546814635176e-15 1.987846675914699e-16 1.5902773407317588e-15 -0.8937835104808298 29.357309585020104 3.062619475442354 -0.5294886751541525 7.988042347423773e-16 -7.914561294096355e-16 0.0 0.0 3.975693351829396e-16 -40.21839771635763 11.202528177037102 71.04067703347776 -28.901567028478354 -3.1791421729109052e-15 -4.087107809645168e-16 0.0 0.0 -7.370562753039966e-15 0.0 0.0 3.975693351829396e-16 -3.375119153718405 13.234729304698103 -4.43988963440152 0.0 0.0 3.975693351829396e-16 29.994411911334865 3.886653198736068 -73.03463339729527 30.210579436479772 0.0 0.0 0.0 0.0 0.0 3.1805546814635176e-15 1.987846675914699e-16 1.5902773407317588e-15 -0.8891298420879237 29.103825285194297 -4.252586307289076 -0.705319721677248 6.602160096483025 1.647316531361655 0.0 1.5902773407317582e-15 0.0
2500.0 5850.0 935.6348341179406 31.52727275243987 -23.435391499827453 0.09286653621153501 -6.3611093629270335e-15 -1.987846675914698e-16 -1.1034765745125397e-32 -0.8185566886290178 29.656784881696098 1.937417656688383 0.02346398821741189 4.8881377229795495 -0.3907465216133633 0.0 0.0 0.0 -6.3611093629270335e-15 -1.987846675914698e-16 -1.1034765745125397e-32 -0.8141239047925959 29.3856551017697 2.5655910870769656 -0.6706573992915159 2.034348571076293e-16 -7.939616540452492e-16 0.0 0.0 1.987846675914698e-16 -40.194085889097 10.692356428887354 70.92235567543315 -29.60336954757344 -6.03447798303218e-15 4.162444402842331e-15 0.0 0.0 -5.218097524276083e-16 0.0 0.0 1.987846675914698e-16 -3.113065341997387 12.986855186852559 -5.012644982004933 0.0 0.0 1.987846675914698e-16 29.242289755154772 4.146598797194238 -72.83219734445018 31.414373303958296 -8.706702219551855e-15 -7.463270162816313e-15 6.3611093629270335e-15 0.0 0.0 -6.3611093629270335e-15 -1.987846675914698e-16 -1.1034765745125397e-32 -0.7917495288460425 28.567630884240685 -4.592836502666485 -0.7239717998210681 6.593101225413493 1.677124100790461 0.0 0.0 -3.975693351829396e-16
